<svg width="44" height="44" viewBox="0 0 44 44" fill="none" xmlns="http://www.w3.org/2000/svg">
<path d="M17.9609 14.499C17.9609 16.3896 19.2393 17.9688 20.9902 18.4092V25.209C20.9902 28.3779 21.5596 30.1074 21.9893 30.1074C22.4297 30.1074 22.9883 28.3887 22.9883 25.209V18.4092C24.7393 17.9795 26.0283 16.3896 26.0283 14.499C26.0283 12.2754 24.2344 10.4492 21.9893 10.4492C19.7549 10.4492 17.9609 12.2754 17.9609 14.499ZM20.8398 14.7246C20.1094 14.7246 19.4648 14.0801 19.4648 13.3281C19.4648 12.5869 20.1094 11.9531 20.8398 11.9531C21.6025 11.9531 22.2256 12.5869 22.2256 13.3281C22.2256 14.0801 21.6025 14.7246 20.8398 14.7246ZM22 34.0391C28.4775 34.0391 32.1943 31.8047 32.1943 29.4414C32.1943 26.6055 27.6934 24.876 24.7393 24.8438V26.4121C26.8125 26.4443 30.0244 27.5723 30.0244 29.1836C30.0244 31.0312 26.6191 32.3418 22 32.3418C17.3594 32.3418 13.9756 31.0527 13.9756 29.1836C13.9756 27.5723 17.1768 26.4443 19.25 26.4121V24.8438C16.2959 24.876 11.7949 26.6055 11.7949 29.4414C11.7949 31.8047 15.5225 34.0391 22 34.0391Z" fill="white"/>
</svg>
