<svg width="44" height="44" viewBox="0 0 44 44" fill="none" xmlns="http://www.w3.org/2000/svg">
<path d="M15.1895 32.417L27.4033 34.5762C29.5947 34.9629 30.9268 33.749 30.9268 31.3535V18.0654C30.9268 16.8945 30.6045 16.1211 29.9707 15.5947V13.5107C29.9707 11.2549 28.4561 10.1699 25.9102 10.6211L14.8564 12.5762C13.7607 12.7051 13.0732 13.5322 13.0732 14.8213V29.9785C13.0732 31.3643 13.7822 32.1699 15.1895 32.417ZM27.6182 14.7031L19.9053 13.3389L26.5225 12.2432C27.5967 12.0605 28.2412 12.5117 28.2412 13.4463V14.832C28.0371 14.7783 27.833 14.7354 27.6182 14.7031ZM15.6084 30.709C15.0605 30.623 14.8027 30.3008 14.8027 29.7314V15.1113C14.8027 14.5312 15.1895 14.2412 15.8232 14.3486L27.5322 16.4004C28.6172 16.6045 29.1973 17.0449 29.1973 18.0439V31.1709C29.1973 32.3848 28.4883 32.9971 27.3281 32.7822L15.6084 30.709ZM17.4883 19.0752L25.7705 20.5361C26.2754 20.6221 26.5869 20.3105 26.5869 19.8594C26.5869 19.4512 26.3828 19.2363 26.0068 19.1611L17.7676 17.7217C17.2734 17.6357 16.9297 17.9258 16.9297 18.3662C16.9297 18.7422 17.1338 19.0107 17.4883 19.0752ZM17.4883 23.2646L25.7705 24.7256C26.2754 24.8115 26.5869 24.5 26.5869 24.0488C26.5869 23.6406 26.3828 23.4258 26.0068 23.3506L17.7676 21.9111C17.2734 21.8252 16.9297 22.1152 16.9297 22.5557C16.9297 22.9316 17.1338 23.2002 17.4883 23.2646Z" fill="white"/>
</svg>
