<svg width="44" height="44" viewBox="0 0 44 44" fill="none" xmlns="http://www.w3.org/2000/svg">
<path d="M10.2695 22.1289C10.2695 23.2773 11.1992 24.207 12.3477 24.207H19.9355V31.7949C19.9355 32.9297 20.8516 33.873 22 33.873C23.1484 33.873 24.0781 32.9297 24.0781 31.7949V24.207H31.666C32.8008 24.207 33.7305 23.2773 33.7305 22.1289C33.7305 20.9941 32.8008 20.0645 31.666 20.0645H24.0781V12.4766C24.0781 11.3418 23.1484 10.3984 22 10.3984C20.8516 10.3984 19.9355 11.3418 19.9355 12.4766V20.0645H12.3477C11.1992 20.0645 10.2695 20.9941 10.2695 22.1289Z" fill="white"/>
</svg>
